<?xml version="1.0" encoding="UTF-8"?>
<svg width="20px" height="20px" viewBox="0 0 20 20" version="1.1" xmlns="http://www.w3.org/2000/svg" xmlns:xlink="http://www.w3.org/1999/xlink">
    <title>20</title>
    <defs>
        <linearGradient x1="91.316613%" y1="52.7666039%" x2="3.95196197%" y2="52.8549397%" id="linearGradient-1">
            <stop stop-color="#CBDCFF" offset="0%"></stop>
            <stop stop-color="#FFFFFF" offset="30.4425303%"></stop>
            <stop stop-color="#FFFFFF" offset="67.7046236%"></stop>
            <stop stop-color="#CBDCFF" offset="100%"></stop>
        </linearGradient>
        <linearGradient x1="50%" y1="50%" x2="7.8317112%" y2="50%" id="linearGradient-2">
            <stop stop-color="#FEFEFF" offset="0%"></stop>
            <stop stop-color="#CBDCFF" offset="100%"></stop>
        </linearGradient>
    </defs>
    <g id="页面-1" stroke="none" stroke-width="1" fill="none" fill-rule="evenodd">
        <g id="20">
            <rect id="矩形" fill="#6698FF" x="0" y="0" width="20" height="20" rx="2.5"></rect>
            <path d="M17.7658549,6.39785719 L13.2192331,14.5935059 C13.0286449,14.9370564 12.666344,15.1498189 12.27347,15.1489088 L10.5106582,15.144825 C10.1195739,15.1439191 9.75961295,14.9314076 9.56989295,14.5894222 L5.02202588,6.3915288 C4.84209986,6.06719778 4.84141838,5.67317494 5.02022144,5.34822347 L5.92293816,3.70765247 C6.11254967,3.36305805 6.47469027,3.14898077 6.86800674,3.14898077 L15.9002877,3.14898077 C16.2907169,3.14898077 16.6506716,3.35995439 16.8414428,3.70060277 L17.7637459,5.34750216 C17.9463742,5.67361019 17.9471721,6.07101838 17.7658549,6.39785719 Z M11.3956425,12.4243345 L15.0273969,5.87610921 L7.7629993,5.87620524 L11.3956425,12.4243345 Z" id="蒙版" fill="#FFFFFF" fill-rule="nonzero" transform="translate(11.393886, 9.148981) rotate(209.000000) translate(-11.393886, -9.148981) "></path>
            <path d="M12.7754456,11.8464819 L14.0371406,14.0915575 C14.1247006,14.2473629 14.0693768,14.4446495 13.9135715,14.5322095 C13.8651602,14.5594158 13.8105623,14.5737064 13.75503,14.5737064 L4.55414698,14.5737064 C4.37542354,14.5737064 4.23053957,14.4288224 4.23053957,14.2500989 C4.23053957,14.1954097 4.24439972,14.1416125 4.27082561,14.0937316 L5.51104796,11.8465779 L5.51104796,11.8465779 L12.7754456,11.8464819 Z" id="路径-13" fill="url(#linearGradient-1)" transform="translate(9.157012, 13.210094) rotate(29.000000) translate(-9.157012, -13.210094) "></path>
            <path d="M14.3194926,7.88141965 L6.07393843,8.0224988 C5.89524114,8.02555626 5.74789981,7.88317205 5.74484235,7.70447476 C5.74381186,7.64424645 5.75961226,7.58492595 5.79046517,7.53318998 L7.08873976,5.35616708 L7.08873976,5.35616708 L13.7183326,5.24113344 L14.3194926,7.88141965 Z" id="路径-13备份" fill="url(#linearGradient-2)" transform="translate(9.906113, 6.636788) rotate(149.000000) translate(-9.906113, -6.636788) "></path>
        </g>
    </g>
</svg>