<?xml version="1.0" standalone="no"?><!DOCTYPE svg PUBLIC "-//W3C//DTD SVG 1.1//EN" "http://www.w3.org/Graphics/SVG/1.1/DTD/svg11.dtd"><svg t="1662523920847" class="icon" viewBox="0 0 1024 1024" version="1.1" xmlns="http://www.w3.org/2000/svg" p-id="31291" xmlns:xlink="http://www.w3.org/1999/xlink" width="200" height="200"><path d="M512 1024a512 512 0 1 1 0-1024 512 512 0 0 1 0 1024z m0-68.1984a443.8016 443.8016 0 1 0 0-887.6032A443.8016 443.8016 0 0 0 512 955.733333z m13.243733-694.0672c46.626133 0 84.514133 12.288 113.5616 38.6048 29.149867 25.463467 43.7248 60.416 43.7248 104.1408 0 35.601067-9.454933 65.467733-27.648 88.746667-6.519467 8.055467-26.999467 26.965333-61.201066 56.832-12.5952 10.4448-22.971733 23.278933-30.549334 37.7856a97.962667 97.962667 0 0 0-11.741866 48.128v12.3904h-77.994667v-12.3904c0-26.9312 4.334933-50.244267 14.506667-69.154134 9.454933-20.309333 37.205333-50.244267 82.295466-90.282666l12.3904-13.755734c13.141333-16.861867 20.309333-34.2016 20.309334-53.179733 0-25.531733-7.338667-45.124267-21.162667-59.630933-14.506667-14.574933-35.6352-21.845333-61.917867-21.845334-32.768 0-56.797867 10.205867-71.304533 31.300267-13.141333 17.476267-19.694933 42.325333-19.694933 74.274133h-76.3904c0-53.1456 15.2576-94.583467 45.738666-125.269333 30.890667-31.402667 73.181867-46.6944 126.976-46.6944h0.1024z m-13.0048 425.915733c15.291733 0 28.330667 4.334933 38.570667 14.506667 10.24 9.454933 15.36 21.8112 15.36 37.1712a51.575467 51.575467 0 0 1-15.9744 37.819733c-10.24 9.489067-23.790933 14.677333-37.7856 14.472534a52.258133 52.258133 0 0 1-53.179733-52.462934c0-15.2576 5.12-27.5456 15.2576-37.102933a51.2 51.2 0 0 1 37.751466-14.404267z" p-id="31292" fill="#d7d9db"></path></svg>