<?xml version="1.0" standalone="no"?><!DOCTYPE svg PUBLIC "-//W3C//DTD SVG 1.1//EN" "http://www.w3.org/Graphics/SVG/1.1/DTD/svg11.dtd"><svg t="1662630070244" class="icon" viewBox="0 0 1024 1024" version="1.1" xmlns="http://www.w3.org/2000/svg" p-id="5950" xmlns:xlink="http://www.w3.org/1999/xlink" width="32" height="32"><path d="M744 240H424a40 40 0 0 0 0 80h320a40 40 0 0 0 0-80z" fill="#d7d9db" p-id="5951"></path><path d="M280 280m-40 0a40 40 0 1 0 80 0 40 40 0 1 0-80 0Z" fill="#d7d9db" p-id="5952"></path><path d="M744 472H424a40 40 0 0 0 0 80h320a40 40 0 0 0 0-80z" fill="#d7d9db" p-id="5953"></path><path d="M280 512m-40 0a40 40 0 1 0 80 0 40 40 0 1 0-80 0Z" fill="#d7d9db" p-id="5954"></path><path d="M744 704H424a40 40 0 0 0 0 80h320a40 40 0 0 0 0-80z" fill="#d7d9db" p-id="5955"></path><path d="M280 744m-40 0a40 40 0 1 0 80 0 40 40 0 1 0-80 0Z" fill="#d7d9db" p-id="5956"></path><path d="M858 64H166a70 70 0 0 0-70 70v756a70 70 0 0 0 70 70h692a70 70 0 0 0 70-70V134a70 70 0 0 0-70-70z m-10 776a40 40 0 0 1-40 40H216a40 40 0 0 1-40-40V184a40 40 0 0 1 40-40h592a40 40 0 0 1 40 40z" fill="#d7d9db" p-id="5957"></path></svg>